<svg width="14" height="14" viewBox="0 0 14 14" fill="none" xmlns="http://www.w3.org/2000/svg">
<path d="M7.04595 3.06812C6.0593 3.06812 5.25623 3.87119 5.25623 4.85784C5.25623 5.84449 6.0593 6.64757 7.04595 6.64757C8.0326 6.64757 8.83568 5.84449 8.83568 4.85784C8.83568 3.87119 8.0326 3.06812 7.04595 3.06812ZM7.04595 6.13622C6.34105 6.13622 5.76758 5.56274 5.76758 4.85784C5.76758 4.15294 6.34105 3.57947 7.04595 3.57947C7.75085 3.57947 8.32433 4.15294 8.32433 4.85784C8.32433 5.56274 7.75085 6.13622 7.04595 6.13622Z" fill="black"/>
<path d="M10.4677 1.43613C9.54163 0.510072 8.3103 0 7.00073 0C5.69091 0 4.45983 0.510072 3.53378 1.43613C1.81999 3.14966 1.60701 6.37372 3.07254 8.32708L7.00073 14L10.923 8.33501C12.3945 6.37372 12.1815 3.14966 10.4677 1.43613ZM10.5083 8.03612L7.00073 13.1016L3.4875 8.0282C2.15824 6.25586 2.34872 3.34423 3.89556 1.79765C4.72497 0.968242 5.82769 0.51135 7.00073 0.51135C8.17377 0.51135 9.27649 0.968242 10.1062 1.79765C11.653 3.34423 11.8435 6.25586 10.5083 8.03612Z" fill="black"/>
</svg>
